<svg id="Layer_1" data-name="Layer 1" xmlns="http://www.w3.org/2000/svg" width="500" height="500" viewBox="0 0 500 500">
  <title>arriving</title>
  <path d="M250,20a230.07,230.07,0,0,1,89.52,441.93,230.06,230.06,0,0,1-179-423.87A228.54,228.54,0,0,1,250,20m0-20C111.93,0,0,111.93,0,250S111.93,500,250,500,500,388.07,500,250,388.07,0,250,0Z" style="fill: #7c3e00"/>
  <g>
    <path d="M161.11,210.89v17H136l.41,1.32h24.72v18.69H128.94l.41,1.32h23.73c-4.38,12.24-13.23,25.55-24.81,34l.66,1.08c13.64-5.62,24.64-13.56,32.17-23.57v28.61h2.32c4.63,0,9.92-3,9.92-4.22V249.26h.17c4.13,16.7,11.25,27.87,23.65,34.73,1.41-5.71,4.8-9.43,9.18-10.58l.25-.91c-12.65-3.31-25.55-11.58-31.83-23.24h27.37c2.4,0,3.47-.25,4.13-1.16l-11.91-8.35-6.45,8.19H173.35V229.25h22.74c2.32,0,3.47-.25,4.05-1.16l-11.41-8-6.2,7.85h-9.18v-13.4c2.4-.33,3-1,3.14-2.23l-15.38-1.41Z" style="fill: #7c3e00"/>
    <path d="M238,210.56a121.11,121.11,0,0,1-4.22,15.71H211.38l.41,1.32h21.5c-4.55,13-11.91,26.38-22.49,36.05l.58.74a68.55,68.55,0,0,0,17-12.07v37.13h2.23c6.12,0,9.76-2.65,9.76-3.47v-19.1h23.73v8.27c0,.74-.33,1.16-1.08,1.16H251.65v.91c5.46.83,9.76,2.07,9.76,12.16,12.9-.83,14.88-6.37,14.88-13.73V245.29a5.41,5.41,0,0,0,3.64-2l-12-8.6-4.71,6.12H241.57l-2.56-.91a98.48,98.48,0,0,0,7.11-12.32h39c2.4,0,3.47-.25,4.13-1.16l-12-8.43-6.62,8.27h-23.9c1.41-3.06,2.73-6,3.8-8.93,2.15,0,2.89-.74,3.22-1.65L238,210.56Zm2.4,42.42V242.14h23.73V253Zm0,12.57V254.3h23.73v11.25Z" style="fill: #7c3e00"/>
    <path d="M360.72,211.8l-4.46,5.87H309.62l-12.16-4.88v76.65c9.76,0,11.16-4.3,11.16-4.71v-2.07h48.45v5.54c8.52,0,11.33-3.31,11.33-3.39v-63a5.89,5.89,0,0,0,3.31-1.82l-11-8.19Zm-52.09,69.54V219h48.45v62.35Zm33.74-60.28-3.47,4.55H326.32l-10.17-4v17.12c8,0,9.67-3.06,9.67-3.14h1.82v6.53H309.37l.41,1.32h42.83c2.07,0,3.22-.17,3.8-1.16l-8.35-5.54c.91-.33,1.49-.66,1.49-.83v-6.86a4.35,4.35,0,0,0,2.65-1.32l-9.84-6.7Zm-16.46,13.23v-7.36h13.73v7.36Zm11.66,7.85v-6.53h2.07v2.56a20.71,20.71,0,0,0,8.27-1.32l-4.3,5.29Zm8.27,2.48L342.45,249h-19.6l-9.59-3.89V278.2c7.77,0,9.1-3.14,9.1-3.31v-1.24h20.84v3.89c6.7,0,9.18-2.23,9.18-2.32V252.4a4.62,4.62,0,0,0,2.65-1.32l-9.18-6.45Zm-23.48,27.7v-22h20.84v22ZM336.24,253,334,255.87h-2.73l-6.7-2.81v16.62c5.29,0,6.28-2.07,6.28-2.07v-1.32h3.64v2.81c4.55,0,6.37-1.65,6.37-1.82v-8.76a3.67,3.67,0,0,0,2-1L336.24,253Zm-5.37,12v-7.77h3.64V265Z" style="fill: #7c3e00"/>
  </g>
</svg>
