<svg id="Layer_1" data-name="Layer 1" xmlns="http://www.w3.org/2000/svg" width="55" height="48" viewBox="0 0 55 48"><title>honeycomb</title><g id="Layer_2" data-name="Layer 2"><g id="Artboard_2" data-name="Artboard 2"><rect width="55.70333" height="48.33" style="fill:#ffda00"/><path d="M43.83667,17.31333l11.86666-6.85V0H53.66667V6.85L41.8,13.7,29.92333,6.85V0H25.85667V6.85L14,13.70333,2.12333,6.85V0H0V10.29l.1-.05667L12.16667,17.2V31.13333L.1,38.1,0,38.04334v10.29H2.12333V41.48L14,34.63l11.86667,6.85v6.85333h4.06667V41.48L41.8,34.63l11.86667,6.85v6.85333h2.04667V37.86667l-11.86666-6.85Zm-4.07,13.70333L27.9,37.86667l-11.86667-6.85V17.31333L27.9,10.46333l11.86667,6.85Z" style="fill:#fff"/></g></g></svg>
