<svg xmlns="http://www.w3.org/2000/svg" width="167.11" height="144.99" viewBox="0 0 167.11 144.99">
  <title>slightlight</title>
  <g id="Layer_2" data-name="Layer 2">
    <g id="Artboard_2" data-name="Artboard 2">
      <g>
        <rect width="167.11" height="144.99" style="fill: none"/>
        <path d="M131.51,51.94l35.6-20.55V0H161V20.55l-35.6,20.55L89.77,20.55V0H77.57V20.55L42,41.11,6.37,20.55V0H0V30.87l.3-.17L36.5,51.6V93.4L.3,114.3l-.3-.17V145H6.37V124.44L42,103.89l35.6,20.55V145h12.2V124.44l35.6-20.55L161,124.44V145h6.14V113.6l-35.6-20.55ZM119.3,93.05,83.7,113.6,48.1,93.05V51.94L83.7,31.39l35.6,20.55Z" style="fill: #fff;opacity: 0.1"/>
      </g>
    </g>
  </g>
</svg>
